<?xml version="1.0" encoding="UTF-8"?>
<svg xmlns="http://www.w3.org/2000/svg" viewBox="0 0 742.4 568.89">
  <defs>
    <style>
      .cls-1 {
        fill: #f1faee;
      }

      .cls-2 {
        fill: #e63946;
      }
    </style>
  </defs>
  <g id="training">
    <path class="cls-1" d="m261.13,506.81l-.8-2.03c-.24-.61-.73-1.08-1.35-1.28l-7.44-5.23c-.85-.29-1.53-.93-1.86-1.76l-92-232.48-12.09,4.78-12.09,4.78,92,232.48c.33.83.28,1.77-.15,2.56l-1.84,8.9c-.31.57-.35,1.26-.11,1.86l.8,2.03c.07.18.17.35.29.51l30.27,46.95,8.29-3.28,8.29-3.28-10.06-54.95c-.02-.19-.07-.39-.14-.57Z"/>
  </g>
  <g id="cicd">
    <path id="knife" class="cls-1" d="m98.13,138.09s16.51-16.33,14.24-21.71-1.81-8.19-8.16-8.43-32.53.89-32.53.89l16.12-24.82s4.91-8.35,1.17-12.38-2.07-4.49-13.51-3.92-26.82.99-26.82.99l20.72-26.47s1.56-7.12-1.26-10.23-3.91-4.09-11.98-3.92-28.31,1.4-28.31,1.4l5.33-8.69s1.52-4.53-2.15-8.56-8.95-3.16-10.76-1.76S.83,34.94.83,34.94c0,0-2.8,4.69,1.87,9.72s8.51,3.74,10.1,3.68,29.25-1.43,29.25-1.43l-19.47,26.11s-4.69,7.3.38,11.67,2.87,3.58,9.76,3.52,30.31-1.36,30.31-1.36l-19.43,26.64s-4.34,5.84.24,10.72,4.45,3.64,9.76,3.55,30.76-.96,30.76-.96c0,0-8.75,8.91-5.46,13.75s99.97,182.02,99.97,182.02l15.2-9.79-95.95-174.68Z"/>
  </g>
  <g id="server_side">
    <path id="knife-2" data-name="knife" class="cls-1" d="m383.06,1.94s11.65-7.41,16.94,6.71.35,54.35-3.53,66.35c-3.88,12-12,32.12-28.24,48.35-16.24,16.24-214.24,214.24-214.24,214.24l-53.29-53.29L383.06,1.94Z"/>
  </g>
  <g id="web">
    <path id="knife-3" data-name="knife" class="cls-1" d="m664.11,302.33l-286.41,180.26c-6.89,4.34-17.19.36-23-8.88h0c-12.87-20.46,16.82-62.3,32.07-71.9l4.9-3.08c5.78-3.64,14.42-.3,19.3,7.45l6.02,9.56,66-41.54-6.02-9.56c-4.88-7.75-4.15-16.99,1.63-20.63l151.67-95.46,33.84,53.77Z"/>
  </g>
  <g id="cloud_native">
    <path class="cls-1" d="m735.49,57.72l-.06.06-11.76,26.93-16.06,3.77-8.6-14.06,10.9-27.29v-.08c.21-3.98-2.83-6-5.88-3.9-31.11,31.47-21.74,42.08-17.83,49.86,1.25,2.48,1.39,5.36.32,7.92l-84.56,202.38,13.55,5.66h0s13.52,5.64,13.52,5.64l84.56-202.38c1.07-2.56,3.22-4.48,5.86-5.33,8.29-2.68,22.42-3.47,22.95-47.72-.65-3.65-4.22-4.39-6.91-1.44Z"/>
  </g>
  <g id="base">
    <rect class="cls-2" x="74.36" y="213.93" width="624.69" height="146.91" rx="73.46" ry="73.46"/>
    <g>
      <rect class="cls-1" x="125.59" y="279.04" width="51.65" height="16.7" rx="8.35" ry="8.35"/>
      <rect class="cls-1" x="125.59" y="279.04" width="51.65" height="16.7" rx="8.35" ry="8.35" transform="translate(438.8 135.98) rotate(90)"/>
    </g>
    <circle class="cls-1" cx="624.94" cy="287.56" r="14.32"/>
  </g>
</svg>